<?xml version="1.0" encoding="UTF-8" standalone="no"?>
<!-- Created with Inkscape (http://www.inkscape.org/) -->

<svg
   xmlns:dc="http://purl.org/dc/elements/1.1/"
   xmlns:cc="http://creativecommons.org/ns#"
   xmlns:rdf="http://www.w3.org/1999/02/22-rdf-syntax-ns#"
   xmlns:svg="http://www.w3.org/2000/svg"
   xmlns="http://www.w3.org/2000/svg"
   xmlns:sodipodi="http://sodipodi.sourceforge.net/DTD/sodipodi-0.dtd"
   xmlns:inkscape="http://www.inkscape.org/namespaces/inkscape"
   width="256"
   height="256"
   viewBox="0 0 256 256"
   id="svg2"
   version="1.1"
   inkscape:version="0.92.4 (unknown)"
   sodipodi:docname="bijiben.svg">
  <sodipodi:namedview
     inkscape:window-maximized="1"
     inkscape:window-y="0"
     inkscape:window-x="0"
     inkscape:window-height="1048"
     inkscape:window-width="1920"
     units="px"
     showgrid="true"
     inkscape:current-layer="layer1"
     inkscape:document-units="px"
     inkscape:cy="127.99998"
     inkscape:cx="157.0166"
     inkscape:zoom="3.3046875"
     inkscape:pageshadow="2"
     inkscape:pageopacity="0.0"
     borderopacity="1.0"
     bordercolor="#666666"
     pagecolor="#ffffff"
     id="base">
    <inkscape:grid
       spacingy="5"
       spacingx="5"
       id="grid4168"
       type="xygrid" />
  </sodipodi:namedview>
  <defs
     id="defs4">
    <inkscape:path-effect
       fuse_tolerance="0"
       vertical_pattern="false"
       prop_units="false"
       tang_offset="0"
       normal_offset="0"
       spacing="0"
       scale_y_rel="false"
       prop_scale="1"
       copytype="single_stretched"
       pattern="M 0,0 1,0"
       is_visible="true"
       id="path-effect4235"
       effect="skeletal" />
    <clipPath
       id="clipPath5002"
       clipPathUnits="userSpaceOnUse">
      <g
         id="g5004">
        <path
           style="fill:#0f9d58;fill-opacity:1;stroke:none;stroke-width:4.85768509;stroke-linejoin:round;stroke-miterlimit:4;stroke-dasharray:none;stroke-opacity:1"
           d="M 88.118406,249.43519 C 46.103287,235.29134 14.771284,201.68742 4.1335861,159.36053 1.3377997,148.23623 0.92261224,144.16281 0.92582381,127.88908 0.92787958,117.47222 1.134384,112.01362 1.6577819,108.54099 4.4653598,89.913336 12.17654,70.638106 23.042737,55.086148 c 3.958678,-5.665755 8.344812,-10.93092 9.101533,-10.925587 0.32809,0.0023 10.488643,18.309713 22.579009,40.683112 12.090365,22.373397 22.374546,41.334697 22.853732,42.136217 0.479186,0.80151 0.924733,2.44098 0.990103,3.64326 0.343424,6.31639 2.524175,14.20976 5.6424,20.42304 2.954444,5.88693 5.065381,8.73258 10.434696,14.06652 6.71418,6.66995 12.88853,10.28643 21.73204,12.72904 3.16587,0.87442 5.10478,1.05037 11.57517,1.05037 8.82596,0 12.60219,-0.76201 19.26429,-3.88733 2.04584,-0.95974 3.93661,-1.66536 4.20172,-1.56805 0.2651,0.0973 -11.0555,17.66459 -25.1569,39.0384 l -25.6389,38.86148 -3.094121,0.11221 c -2.554618,0.0927 -4.195204,-0.25845 -9.409103,-2.01364 z"
           id="path5006"
           inkscape:connector-curvature="0"
           transform="translate(0,796.36216)" />
        <path
           style="fill:#f4b400;fill-opacity:1;stroke:none;stroke-width:4.85768509;stroke-linejoin:round;stroke-miterlimit:4;stroke-dasharray:none;stroke-opacity:1"
           d="m 112.35984,1051.5167 c -10.0014,-1.4495 -12.15632,-1.8201 -12.531784,-2.1556 -0.248854,-0.2223 1.738304,-3.7475 4.550294,-8.0722 7.16635,-11.0213 49.77231,-74.64801 50.25856,-75.05489 3.57509,-2.99158 8.63523,-8.0414 10.57512,-10.55356 3.36154,-4.35318 7.55784,-12.9141 9.06523,-18.494 6.19314,-22.92535 -2.59253,-47.15185 -21.69967,-59.83688 l -2.96081,-1.96565 17.02469,0.29584 c 9.36358,0.1627 31.17032,0.43384 48.45941,0.60252 l 31.43471,0.30668 1.54584,4.18869 c 2.24597,6.08579 4.67816,15.0947 5.93451,21.9816 1.52517,8.36049 1.92536,28.85896 0.73851,37.82758 -3.0805,23.27845 -12.81326,45.72018 -27.80202,64.10577 -20.47622,25.1166 -51.4599,42.1974 -84.14612,46.3885 -5.31244,0.6812 -26.64601,0.9864 -30.44647,0.4356 z"
           id="path5008"
           inkscape:connector-curvature="0" />
        <path
           style="fill:#db4437;fill-opacity:1;stroke:none;stroke-width:10;stroke-linejoin:round;stroke-miterlimit:4;stroke-dasharray:none;stroke-opacity:1"
           d="M 67.989788,108.87302 C 41.284246,59.575543 33.290284,45.149038 32.233625,44.344765 31.651257,43.901497 32.811213,42.549931 38.695603,36.815353 53.43581,22.450419 68.809334,13.040746 87.839196,6.7360352 101.68742,2.1480329 112.58238,0.43719165 127.95142,0.43719165 c 21.3099,0 37.80488,3.80960275 56.83492,13.12633035 25.29351,12.383198 46.19421,33.578863 58.51993,59.345832 1.61138,3.368591 2.92978,6.372442 2.92978,6.675231 0,0.560033 -10.54865,0.49527 -71.16508,-0.436914 l -24.28843,-0.373518 -3.93063,-1.764495 c -6.75732,-3.033425 -10.64587,-3.839529 -18.6576,-3.867747 -5.0296,-0.01773 -7.97946,0.207636 -10.31642,0.788106 -14.50826,3.603659 -26.283291,12.94777 -33.291614,26.418653 -3.58502,6.89086 -5.24713,13.08166 -6.331628,23.58317 l -0.33738,3.26696 -9.92748,-18.32578 z"
           id="path5010"
           inkscape:connector-curvature="0"
           transform="translate(0,796.36216)" />
      </g>
    </clipPath>
    <clipPath
       clipPathUnits="userSpaceOnUse"
       id="clipPath4271">
      <circle
         style="fill:#292929;fill-opacity:0.26020412;stroke:none;stroke-width:10;stroke-linejoin:round;stroke-miterlimit:4;stroke-dasharray:none;stroke-opacity:0.25882353"
         id="circle4273"
         cx="128"
         cy="128.00002"
         r="128" />
    </clipPath>
    <clipPath
       id="clipPath4363"
       clipPathUnits="userSpaceOnUse">
      <circle
         style="fill:#4285f4;fill-opacity:1;stroke:none;stroke-width:10;stroke-linejoin:round;stroke-miterlimit:4;stroke-dasharray:none;stroke-opacity:0.25882353"
         id="circle4365"
         cx="128"
         cy="924.36218"
         r="128" />
    </clipPath>
    <clipPath
       clipPathUnits="userSpaceOnUse"
       id="clipPath4452">
      <circle
         style="fill:#4285f4;fill-opacity:1;stroke:none;stroke-width:10;stroke-linejoin:round;stroke-miterlimit:4;stroke-dasharray:none;stroke-opacity:0.25882353"
         id="circle4454"
         cx="128"
         cy="924.36218"
         r="128" />
    </clipPath>
    <clipPath
       id="clipPath5177"
       clipPathUnits="userSpaceOnUse">
      <circle
         style="fill:#4285f4;fill-opacity:1;stroke:none;stroke-width:10;stroke-linejoin:round;stroke-miterlimit:4;stroke-dasharray:none;stroke-opacity:0.25882353"
         id="circle5179"
         cx="128"
         cy="924.36218"
         r="128" />
    </clipPath>
    <clipPath
       clipPathUnits="userSpaceOnUse"
       id="clipPath4342">
      <circle
         style="fill:#4285f4;fill-opacity:1;stroke:none;stroke-width:10;stroke-linejoin:round;stroke-miterlimit:4;stroke-dasharray:none;stroke-opacity:0.25882353"
         id="circle4344"
         cx="128"
         cy="933.48718"
         r="128" />
    </clipPath>
    <clipPath
       id="clipPath4681"
       clipPathUnits="userSpaceOnUse">
      <circle
         style="fill:#9d5fad;fill-opacity:1;stroke:none;stroke-width:10;stroke-linejoin:round;stroke-miterlimit:4;stroke-dasharray:none;stroke-opacity:0.25882353"
         id="circle4683"
         cx="127.00293"
         cy="930.43964"
         r="128" />
    </clipPath>
    <clipPath
       clipPathUnits="userSpaceOnUse"
       id="clipPath4480">
      <circle
         style="fill:#df7618;fill-opacity:1;stroke:none;stroke-width:10;stroke-linejoin:round;stroke-miterlimit:4;stroke-dasharray:none;stroke-opacity:0.25882353"
         id="circle4482"
         cx="128"
         cy="924.36218"
         r="128" />
    </clipPath>
    <filter
       style="color-interpolation-filters:sRGB"
       inkscape:label="Drop Shadow"
       id="filter4301">
      <feFlood
         flood-opacity="0.498039"
         flood-color="rgb(0,0,0)"
         result="flood"
         id="feFlood4303" />
      <feComposite
         in="flood"
         in2="SourceGraphic"
         operator="in"
         result="composite1"
         id="feComposite4305" />
      <feGaussianBlur
         in="composite1"
         stdDeviation="3.7"
         result="blur"
         id="feGaussianBlur4307" />
      <feOffset
         dx="3.8"
         dy="3.7"
         result="offset"
         id="feOffset4309" />
      <feComposite
         in="SourceGraphic"
         in2="offset"
         operator="over"
         result="composite2"
         id="feComposite4311" />
    </filter>
    <clipPath
       id="clipPath5827"
       clipPathUnits="userSpaceOnUse">
      <circle
         style="fill:#df7618;fill-opacity:1;stroke:none;stroke-width:10;stroke-linejoin:round;stroke-miterlimit:4;stroke-dasharray:none;stroke-opacity:0.25882353"
         id="circle5829"
         cx="128"
         cy="924.36218"
         r="128" />
    </clipPath>
    <clipPath
       clipPathUnits="userSpaceOnUse"
       id="clipPath6481">
      <circle
         style="fill:#f4a1d7;fill-opacity:1;stroke:none;stroke-width:10;stroke-linejoin:round;stroke-miterlimit:4;stroke-dasharray:none;stroke-opacity:0.25882353"
         id="circle6483"
         cx="128"
         cy="924.36218"
         r="128" />
    </clipPath>
    <filter
       style="color-interpolation-filters:sRGB"
       inkscape:label="Drop Shadow"
       id="filter4165">
      <feFlood
         flood-opacity="0.498039"
         flood-color="rgb(0,0,0)"
         result="flood"
         id="feFlood4167" />
      <feComposite
         in="flood"
         in2="SourceGraphic"
         operator="in"
         result="composite1"
         id="feComposite4169" />
      <feGaussianBlur
         in="composite1"
         stdDeviation="9.1"
         result="blur"
         id="feGaussianBlur4171" />
      <feOffset
         dx="-6.9"
         dy="-6.3"
         result="offset"
         id="feOffset4173" />
      <feComposite
         in="SourceGraphic"
         in2="offset"
         operator="over"
         result="composite2"
         id="feComposite4175" />
    </filter>
    <clipPath
       id="clipPath4500"
       clipPathUnits="userSpaceOnUse">
      <circle
         style="fill:#f4a1d7;fill-opacity:1;stroke:none;stroke-width:10;stroke-linejoin:round;stroke-miterlimit:4;stroke-dasharray:none;stroke-opacity:0.25882353"
         id="circle4502"
         cx="394.56247"
         cy="513.31494"
         r="567.44757" />
    </clipPath>
    <clipPath
       clipPathUnits="userSpaceOnUse"
       id="clipPath4645">
      <circle
         style="fill:#83def2;fill-opacity:1;stroke:none;stroke-width:10;stroke-linejoin:round;stroke-miterlimit:4;stroke-dasharray:none;stroke-opacity:0.25882353"
         id="circle4647"
         cx="128"
         cy="924.36218"
         r="128" />
    </clipPath>
    <clipPath
       clipPathUnits="userSpaceOnUse"
       id="clipPath1079">
      <circle
         style="fill:#83def2;fill-opacity:1;stroke:none;stroke-width:10;stroke-linejoin:round;stroke-miterlimit:4;stroke-dasharray:none;stroke-opacity:0.25882353"
         id="circle1081"
         cx="131.5"
         cy="927.86218"
         r="128" />
    </clipPath>
    <clipPath
       clipPathUnits="userSpaceOnUse"
       id="clipPath1236">
      <circle
         style="fill:#83def2;fill-opacity:1;stroke:none;stroke-width:9.55414009;stroke-linejoin:round;stroke-miterlimit:4;stroke-dasharray:none;stroke-opacity:0.25882353"
         id="circle1238"
         cx="128"
         cy="924.36218"
         r="122.29299" />
    </clipPath>
  </defs>
  <metadata
     id="metadata7">
    <rdf:RDF>
      <cc:Work
         rdf:about="">
        <dc:format>image/svg+xml</dc:format>
        <dc:type
           rdf:resource="http://purl.org/dc/dcmitype/StillImage" />
        <dc:title />
      </cc:Work>
    </rdf:RDF>
  </metadata>
  <g
     inkscape:label="Layer 1"
     inkscape:groupmode="layer"
     id="layer1"
     transform="translate(0,-796.36216)">
    <path
       id="rect6305"
       d="m 314.0332,978.33872 c -1.18004,0.38292 -2.67903,0.69702 -4.41406,0.95313 l 1.375,1.62109 3.03906,-2.57422 z"
       style="opacity:0.95;fill:#f4a1d7;fill-opacity:0.17511525;stroke:none;stroke-width:7;stroke-linecap:round;stroke-linejoin:round;stroke-miterlimit:4;stroke-dasharray:none;stroke-opacity:1" />
    <path
       style="fill:none;fill-rule:evenodd;stroke:none;stroke-width:1px;stroke-linecap:butt;stroke-linejoin:miter;stroke-opacity:1"
       d="M 154.47438,968.80998 101.03985,1048.476 0.4857685,1048.9618 0,842.0244 l 33.032258,-2.42884 45.176471,83.55218 21.373814,35.4611 26.717267,13.11575 z"
       id="path4913"
       inkscape:connector-curvature="0" />
    <circle
       r="128"
       cy="924.36218"
       cx="128"
       id="path4152"
       style="fill:#f9f06b;fill-opacity:1;stroke:none;stroke-width:10;stroke-linejoin:round;stroke-miterlimit:4;stroke-dasharray:none;stroke-opacity:0.25882353" />
    <text
       xml:space="preserve"
       style="font-style:normal;font-weight:normal;line-height:0%;font-family:sans-serif;letter-spacing:0px;word-spacing:0px;fill:#000000;fill-opacity:1;stroke:none;stroke-width:1px;stroke-linecap:butt;stroke-linejoin:miter;stroke-opacity:1"
       x="120"
       y="927.36218"
       id="text4914"><tspan
         sodipodi:role="line"
         id="tspan4916"
         x="120"
         y="927.36218"
         style="font-size:40px;line-height:1.25"> </tspan></text>
    <path
       style="fill:#fffed8;fill-opacity:1;stroke:none;stroke-width:10;stroke-miterlimit:4;stroke-dasharray:none;stroke-opacity:1;filter:url(#filter4165)"
       d="m 638.22461,509.70898 c -50.11989,26.30651 -200.42578,11.58204 -200.42578,11.58204 24.85181,17.98258 6.39872,161.80747 -22.86328,208.14648 L 638.22461,509.70898 Z"
       id="path4149"
       inkscape:connector-curvature="0"
       transform="matrix(0.22557151,0,0,0.22557151,38.997948,808.57295)" />
    <g
       id="g1109"
       transform="matrix(1.0466667,0,0,1.0466667,-5.9733376,-43.136955)"
       clip-path="url(#clipPath1236)"
       style="fill:#f5ca1e;fill-opacity:1">
      <path
         style="display:inline;opacity:1;vector-effect:none;fill:#f5ca1e;fill-opacity:1;stroke:none;stroke-width:11.85275936;stroke-linecap:round;stroke-linejoin:round;stroke-miterlimit:4;stroke-dasharray:none;stroke-dashoffset:0;stroke-opacity:1;marker:none;marker-start:none;marker-mid:none;marker-end:none;paint-order:normal;enable-background:new"
         d="M 70.000008,864.36212 H 190.00001 v 12.00001 H 70.000008 Z"
         id="rect1103" />
      <path
         style="display:inline;opacity:1;vector-effect:none;fill:#f5ca1e;fill-opacity:1;stroke:none;stroke-width:8.58814335;stroke-linecap:round;stroke-linejoin:round;stroke-miterlimit:4;stroke-dasharray:none;stroke-dashoffset:0;stroke-opacity:1;marker:none;marker-start:none;marker-mid:none;marker-end:none;paint-order:normal;enable-background:new"
         d="m 70.000008,888.36212 h 63.000042 v 12.00001 H 70.000008 Z"
         id="rect1105" />
      <path
         style="fill:#f5ca1e;fill-opacity:1;stroke:none;stroke-width:8.15843773;stroke-miterlimit:4;stroke-dasharray:none;stroke-opacity:1"
         d="M 160.34624,934.73357 H 196.91093 203 l -50,50.62859 v -6.08907 -36.56469 c 0,-4.76629 2.57995,-7.97483 7.34624,-7.97483 z"
         id="path1107"
         inkscape:connector-curvature="0"
         sodipodi:nodetypes="sccccss" />
      <g
         id="g1210"
         transform="matrix(0.95541398,0,0,0.95541398,5.7070103,802.06919)"
         style="fill:#f5ca1e;fill-opacity:1">
        <g
           id="g1207"
           style="fill:#f5ca1e;fill-opacity:1;stroke:none;stroke-width:23.82068825;stroke-miterlimit:4;stroke-dasharray:none;stroke-opacity:1">
          <path
             id="path1177"
             d="M59.400391 49.5C53.915721 49.5 49.5 53.915721 49.5 59.400391L-91.9213562373 200.821747237C-91.9213562373 195.337077237 -87.5056352373 190.921356237 -82.0209652373 190.921356237Z"
             style="fill:#f5ca1e;fill-opacity:1" />
          <path
             id="path1179"
             d="M49.5 59.400391L49.5 60.419922L-91.9213562373 201.841278237L-91.9213562373 200.821747237Z"
             style="fill:#f5ca1e;fill-opacity:1" />
          <path
             id="path1181"
             d="M49.5 60.419922L49.5 181.94727L-91.9213562373 323.368626237L-91.9213562373 201.841278237Z"
             style="fill:#f5ca1e;fill-opacity:1" />
          <path
             id="path1183"
             d="M49.5 181.94727L49.5 195.58008L-91.9213562373 337.001436237L-91.9213562373 323.368626237Z"
             style="fill:#f5ca1e;fill-opacity:1" />
          <path
             id="path1185"
             d="M49.5 195.58008C49.5 201.62935 54.370653 206.5 60.419922 206.5L-81.0014342373 347.921356237C-87.0507032373 347.921356237 -91.9213562373 343.050706237 -91.9213562373 337.001436237Z"
             style="fill:#f5ca1e;fill-opacity:1" />
          <path
             id="path1187"
             d="M60.419922 206.5L195.58008 206.5L54.1587237627 347.921356237L-81.0014342373 347.921356237Z"
             style="fill:#f5ca1e;fill-opacity:1" />
          <path
             id="path1189"
             d="M195.58008 206.5C198.60471125 206.5 201.334692256 205.282336494 203.308514947 203.308513803L61.8871587099 344.72987004C59.9133360192 346.703692731 57.1833550127 347.921356237 54.1587237627 347.921356237Z"
             style="fill:#f5ca1e;fill-opacity:1" />
          <path
             id="path1191"
             d="M203.308514947 203.308513803C205.282336006 201.334692744 206.5 198.60471375 206.5 195.58008L65.0786437627 337.001436237C65.0786437627 340.026069987 63.8609797692 342.756048981 61.8871587099 344.72987004Z"
             style="fill:#f5ca1e;fill-opacity:1" />
          <path
             id="path1193"
             d="M206.5 195.58008L206.5 181.94727L65.0786437627 323.368626237L65.0786437627 337.001436237Z"
             style="fill:#f5ca1e;fill-opacity:1" />
          <path
             id="path1195"
             d="M206.5 181.94727L206.5 60.419922L65.0786437627 201.841278237L65.0786437627 323.368626237Z"
             style="fill:#f5ca1e;fill-opacity:1" />
          <path
             id="path1197"
             d="M206.5 60.419922L206.5 59.400391L65.0786437627 200.821747237L65.0786437627 201.841278237Z"
             style="fill:#f5ca1e;fill-opacity:1" />
          <path
             id="path1199"
             d="M206.5 59.400391C206.5 53.915721 202.08428 49.5 196.59961 49.5L55.1782537627 190.921356237C60.6629237627 190.921356237 65.0786437627 195.337077237 65.0786437627 200.821747237Z"
             style="fill:#f5ca1e;fill-opacity:1" />
          <path
             id="path1201"
             d="M196.59961 49.5L195.58008 49.5L54.1587237627 190.921356237L55.1782537627 190.921356237Z"
             style="fill:#f5ca1e;fill-opacity:1" />
          <path
             id="path1203"
             d="M195.58008 49.5L60.419922 49.5L-81.0014342373 190.921356237L54.1587237627 190.921356237Z"
             style="fill:#f5ca1e;fill-opacity:1" />
          <path
             id="path1205"
             d="M60.419922 49.5L59.400391 49.5L-82.0209652373 190.921356237L-81.0014342373 190.921356237Z"
             style="fill:#f5ca1e;fill-opacity:1" />
        </g>
        <path
           id="rect1099"
           transform=""
           d="M 59.400391 49.5 C 53.915721 49.5 49.5 53.915721 49.5 59.400391 L 49.5 60.419922 L 49.5 181.94727 L 49.5 195.58008 C 49.5 201.62935 54.370653 206.5 60.419922 206.5 L 195.58008 206.5 C 201.62934 206.5 206.5 201.62935 206.5 195.58008 L 206.5 181.94727 L 206.5 60.419922 L 206.5 59.400391 C 206.5 53.915721 202.08428 49.5 196.59961 49.5 L 195.58008 49.5 L 60.419922 49.5 L 59.400391 49.5 z "
           style="fill:#f5ca1e;fill-opacity:1;stroke:none;stroke-width:23.82068825;stroke-miterlimit:4;stroke-dasharray:none;stroke-opacity:1" />
      </g>
    </g>
    <g
       transform="matrix(1.0466667,0,0,1.0466667,-5.9733376,-43.136955)"
       id="g1158">
      <rect
         style="fill:#bababa;fill-opacity:1;stroke:none;stroke-width:22.75861931;stroke-miterlimit:4;stroke-dasharray:none;stroke-opacity:1"
         id="rect1133"
         width="150"
         height="150"
         x="53"
         y="849.36218"
         ry="10.432411" />
      <rect
         ry="9.4587193"
         y="849.36218"
         x="53"
         height="136"
         width="150"
         id="rect868"
         style="fill:#fcfcfc;fill-opacity:1;stroke:none;stroke-width:21.67053986;stroke-miterlimit:4;stroke-dasharray:none;stroke-opacity:1" />
      <rect
         y="864.36212"
         x="70.000008"
         height="12.000008"
         width="120"
         id="rect892"
         style="display:inline;opacity:1;vector-effect:none;fill:#6a6a6a;fill-opacity:1;stroke:none;stroke-width:11.85275936;stroke-linecap:round;stroke-linejoin:round;stroke-miterlimit:4;stroke-dasharray:none;stroke-dashoffset:0;stroke-opacity:1;marker:none;marker-start:none;marker-mid:none;marker-end:none;paint-order:normal;enable-background:new" />
      <rect
         style="display:inline;opacity:1;vector-effect:none;fill:#6a6a6a;fill-opacity:1;stroke:none;stroke-width:8.58814335;stroke-linecap:round;stroke-linejoin:round;stroke-miterlimit:4;stroke-dasharray:none;stroke-dashoffset:0;stroke-opacity:1;marker:none;marker-start:none;marker-mid:none;marker-end:none;paint-order:normal;enable-background:new"
         id="rect894"
         width="63.000042"
         height="12.000008"
         x="70.000008"
         y="888.36212" />
      <path
         sodipodi:nodetypes="sccccss"
         inkscape:connector-curvature="0"
         id="rect1128"
         d="M 160.34624,934.73357 H 196.91093 203 l -50,50.62859 v -6.08907 -36.56469 c 0,-4.76629 2.57995,-7.97483 7.34624,-7.97483 z"
         style="fill:#d0d0d0;fill-opacity:1;stroke:none;stroke-width:8.15843773;stroke-miterlimit:4;stroke-dasharray:none;stroke-opacity:1" />
    </g>
  </g>
</svg>
